# xmcd
#
# Track frame offsets: 
#        150
#        27673
#        48049
#        71519
#        94101
#        115872
#        129983
#        156070
#        188798
#        215138
#        230807
#        244514
#        260613
#        277152
#
# Disc length: 4066 seconds
#
# Revision: 0
# Processed by: cddbd v1.5.2PL0 Copyright (c) Steve Scherf et al.
# Submitted via: ExactAudioCopyFreeDBPlugin 1.0
#
DISCID=cc0fe00e
DTITLE=Norma Jean - Norma Jean
DYEAR=1978
DGENRE=Soul
TTITLE0=Saturday
TTITLE1=Having A Party
TTITLE2=I Believe In You
TTITLE3=Sorcerer
TTITLE4=So I Get Hurt Again
TTITLE5=This Is The Love
TTITLE6=I Like Love
TTITLE7=Sorcerer (12" Mix)
TTITLE8=Having A Party (Extended Mix)
TTITLE9=Saturday (Single Mix)
TTITLE10=Sorcerer (Single Mix)
TTITLE11=Having A Party (Single Mix)
TTITLE12=Hold Me Lonely Boy
TTITLE13=High Society (Extended Version)
EXTD=
EXTT0=
EXTT1=
EXTT2=
EXTT3=
EXTT4=
EXTT5=
EXTT6=
EXTT7=
EXTT8=
EXTT9=
EXTT10=
EXTT11=
EXTT12=
EXTT13=
PLAYORDER=
